<svg width="24" height="24" viewBox="0 0 24 24" fill="none" xmlns="http://www.w3.org/2000/svg">
<rect x="0.5" y="0.5" width="23" height="23" fill="white"/>
<rect x="0.5" y="0.5" width="23" height="23" stroke="#FF0000"/>
<path d="M19.2929 7.61711C19.6834 7.22658 19.6834 6.59342 19.2929 6.20289L17.7971 4.70711C17.4066 4.31658 16.7734 4.31658 16.3829 4.70711L12.7071 8.38289C12.3166 8.77342 11.6834 8.77342 11.2929 8.38289L7.61711 4.70711C7.22658 4.31658 6.59342 4.31658 6.20289 4.70711L4.70711 6.20289C4.31658 6.59342 4.31658 7.22658 4.70711 7.61711L8.38289 11.2929C8.77342 11.6834 8.77342 12.3166 8.38289 12.7071L4.70711 16.3829C4.31658 16.7734 4.31658 17.4066 4.70711 17.7971L6.20289 19.2929C6.59342 19.6834 7.22658 19.6834 7.61711 19.2929L11.2929 15.6171C11.6834 15.2266 12.3166 15.2266 12.7071 15.6171L16.3829 19.2929C16.7734 19.6834 17.4066 19.6834 17.7971 19.2929L19.2929 17.7971C19.6834 17.4066 19.6834 16.7734 19.2929 16.3829L15.6171 12.7071C15.2266 12.3166 15.2266 11.6834 15.6171 11.2929L19.2929 7.61711Z" fill="#FF0000"/>
</svg>
