<svg width="24" height="32" viewBox="0 0 24 32" fill="none" xmlns="http://www.w3.org/2000/svg">
<g clip-path="url(#clip0_7893_7504)">
<path d="M17 3.22727L12 1V5.45455L17 3.22727Z" fill="#EB00EB"/>
<path d="M12 8V5.45455M12 5.45455V1L17 3.22727L12 5.45455Z" stroke="#EB00EB"/>
<circle cx="12" cy="20" r="11.25" stroke="#D13513" stroke-width="1.5"/>
<rect x="5" y="18" width="1.5" height="2" fill="#D13513"/>
<rect x="5" y="21" width="1.5" height="2" fill="#D13513"/>
<circle cx="12" cy="20" r="2.25" stroke="#D13513" stroke-width="1.5"/>
<path fill-rule="evenodd" clip-rule="evenodd" d="M8 14.5H16C16.8284 14.5 17.5 15.1716 17.5 16V24C17.5 24.8284 16.8284 25.5 16 25.5H8C7.17157 25.5 6.5 24.8284 6.5 24H5C5 25.6569 6.34315 27 8 27H16C17.6569 27 19 25.6569 19 24V16C19 14.3431 17.6569 13 16 13H8C6.34315 13 5 14.3431 5 16V17H6.5V16C6.5 15.1716 7.17157 14.5 8 14.5Z" fill="#D13513"/>
</g>
<defs>
<clipPath id="clip0_7893_7504">
<rect width="24" height="32" fill="white"/>
</clipPath>
</defs>
</svg>
