<svg width="24" height="24" viewBox="0 0 24 24" fill="none" xmlns="http://www.w3.org/2000/svg">
<g clip-path="url(#clip0_10311_42778)">
<circle cx="12" cy="12" r="12" fill="#FFD600"/>
<g clip-path="url(#clip1_10311_42778)">
<path d="M14.525 6.74934C14.9785 7.12616 15.4146 7.52338 15.8321 7.93978C16.25 8.35503 16.6486 8.78927 17.0267 9.24113C16.9796 8.76863 16.6609 8.16641 16.132 7.64009C15.6039 7.11422 14.9993 6.79616 14.525 6.74934ZM18.3438 9.45112C18.2676 8.69009 17.7538 7.71994 16.9026 6.87272C16.0523 6.0255 15.0783 5.51319 14.3144 5.4375C15.0449 6.04392 15.7472 6.68364 16.419 7.35462C17.0925 8.02345 17.7348 8.72302 18.3438 9.45112ZM14.38 9.61344C14.5488 9.72853 14.7525 9.78125 14.9559 9.76252C15.1594 9.7438 15.35 9.65481 15.495 9.51084C15.5764 9.42984 15.641 9.33355 15.6851 9.22749C15.7292 9.12144 15.7519 9.00772 15.7519 8.89287C15.7519 8.77802 15.7292 8.66431 15.6851 8.55826C15.641 8.4522 15.5764 8.35591 15.495 8.27491C15.3301 8.11098 15.107 8.019 14.8745 8.01909C14.642 8.01917 14.419 8.1113 14.2542 8.27534C14.1099 8.4191 14.0205 8.60892 14.0017 8.81177C13.9829 9.01461 14.0358 9.21764 14.1512 9.3855L13.8198 9.66813C11.8333 7.72344 9.81119 6.45819 8.79116 6.45819C8.59603 6.45819 8.43788 6.48247 8.28234 6.64369C7.65934 7.28856 7.31984 8.12878 7.25181 9.05628C7.16803 10.1971 7.49353 11.4656 8.19441 12.6499C8.17384 12.7147 8.06534 12.9734 8.10494 13.2232C8.10494 13.2232 7.88487 13.5284 7.73175 13.7852L7.73 13.785H7.21703C6.82459 13.785 6.50697 14.2606 6.50697 14.847C6.50697 15.3217 6.71609 15.719 7.00331 15.8553C7.00287 15.8732 7.00069 15.9259 7.00069 15.9259C6.49341 16.0053 6.10447 16.4382 6.10447 16.9656V17.9588H5.65625V18.5625H11.8659V17.9588H11.4177V16.9656C11.4177 16.4382 11.0093 15.9712 10.502 15.8922L10.7041 15.6457C10.8553 15.6457 11.1033 15.5475 11.1033 15.5475C12.2922 16.2451 13.5654 16.573 14.7103 16.4861C15.7349 16.4085 16.5585 16.1007 17.1712 15.4149C17.7916 14.7199 16.4209 12.3006 14.0958 9.94375L14.38 9.61344ZM8.19178 13.6671C8.55709 14.3524 9.68562 15.2557 10.3624 15.5451L10.15 15.8478H8.03822C8.36262 15.5779 8.44028 15.227 8.44028 14.8472C8.44028 14.4321 8.27928 14.0762 8.04675 13.9016C8.09597 13.8198 8.19178 13.6671 8.19178 13.6671ZM7.64447 14.0037H7.73C7.96253 14.0037 8.22153 14.3502 8.22153 14.847C8.22153 15.3442 7.96231 15.6908 7.73 15.6908H7.64425C7.81531 15.4967 7.92753 15.1927 7.92753 14.847C7.92753 14.5014 7.81531 14.1978 7.64447 14.0037ZM11.6472 18.1775V18.3438H7.541V18.1775H11.6472ZM11.1989 16.9656V17.8909H7.99513V16.1283H10.3572C10.8212 16.1285 11.1989 16.5041 11.1989 16.9656ZM11.8526 10.9769L11.2388 11.3947C9.47825 9.51259 8.55841 7.85775 8.55841 7.12537C8.55841 7.03525 8.57416 6.96569 8.60084 6.93878C8.62819 6.91166 8.69906 6.89547 8.79094 6.89547C9.57909 6.89547 11.4297 7.94678 13.4853 9.95294L12.0514 11.1753L11.8526 10.9769ZM16.8812 14.9525C16.8812 15.0428 16.8652 15.1124 16.8385 15.1393C16.8112 15.1664 16.7403 15.1826 16.6484 15.1826C15.9128 15.1826 14.2516 14.2669 12.3631 12.5147L12.7823 11.9031L12.5832 11.7049L13.8102 10.2767C15.8251 12.3242 16.8812 14.1678 16.8812 14.9525Z" fill="black"/>
</g>
</g>
<defs>
<clipPath id="clip0_10311_42778">
<rect width="24" height="24" fill="white"/>
</clipPath>
<clipPath id="clip1_10311_42778">
<rect width="14" height="14" fill="white" transform="translate(5 5)"/>
</clipPath>
</defs>
</svg>
