<svg width="24" height="24" viewBox="0 0 24 24" fill="none" xmlns="http://www.w3.org/2000/svg">
<path fill-rule="evenodd" clip-rule="evenodd" d="M6.92139 3.38003C6.21817 4.11255 6 4.98093 6 5.5V23C6 23.5523 5.55228 24 5 24C4.44772 24 4 23.5523 4 23V5.5C4 4.51907 4.38183 3.13745 5.47861 1.99497C6.5997 0.827168 8.37853 0 11 0C13.763 0 15.4715 0.986004 16.442 2.36082C17.3671 3.6714 17.5 5.16845 17.5 6H19C19.5523 6 20 6.44772 20 7C20 7.55228 19.5523 8 19 8H13C12.4477 8 12 7.55228 12 7C12 6.44772 12.4477 6 13 6H15.5C15.5 5.33155 15.3829 4.3286 14.808 3.51418C14.2785 2.764 13.237 2 11 2C8.82147 2 7.6003 2.67283 6.92139 3.38003Z" fill="black"/>
</svg>
