<svg width="24" height="32" viewBox="0 0 24 32" fill="none" xmlns="http://www.w3.org/2000/svg">
<path d="M17 7.22727L12 5V9.45455L17 7.22727Z" fill="#FF12FF"/>
<path d="M12 12V9.45455M12 9.45455V5L17 7.22727L12 9.45455Z" stroke="#FF12FF"/>
<path d="M6.829 19.9806L8.14906 18.6605C7.04901 17.5605 6.49899 16.1304 6.49899 14.8103C6.49899 13.3803 7.04901 11.9502 8.14906 10.9602L6.829 9.64012C5.39894 11.0702 4.62891 12.9403 4.62891 14.8103C4.62891 16.6804 5.39894 18.5505 6.829 19.9806ZM19.8096 7L18.4895 8.32006C20.2496 10.0801 21.1296 12.5002 21.1296 14.8103C21.1296 17.1205 20.2496 19.5406 18.4895 21.3006L19.8096 22.6207C22.0097 20.4206 22.9997 17.6705 22.9997 14.8103C22.9997 11.9502 21.8997 9.2001 19.8096 7Z" fill="black"/>
<path d="M5.5102 8.32006L4.19014 7C2.10005 9.2001 1 11.9502 1 14.8103C1 17.6705 2.10005 20.4206 4.19014 22.6207L5.5102 21.3006C3.75012 19.5406 2.87008 17.1205 2.87008 14.8103C2.87008 12.5002 3.75012 10.0801 5.5102 8.32006ZM17.1707 19.9806C18.6008 18.5505 19.3708 16.6804 19.3708 14.8103C19.2608 12.9403 18.6008 11.0702 17.1707 9.64012L15.8507 10.9602C16.9507 12.0602 17.5007 13.4903 17.5007 14.8103C17.5007 16.2404 16.9507 17.6705 15.8507 18.6605L17.1707 19.9806ZM14.7506 14.8103C14.7506 14.081 14.4609 13.3815 13.9451 12.8657C13.4294 12.35 12.7299 12.0602 12.0005 12.0602C11.2711 12.0602 10.5716 12.35 10.0559 12.8657C9.54011 13.3815 9.25037 14.081 9.25037 14.8103C9.25037 15.6464 9.62438 16.3724 10.2074 16.8784L6.50025 28.0109H8.70034L9.43738 25.8108H14.5746L15.3006 28.0109H17.5007L13.7936 16.8784C14.3766 16.3724 14.7506 15.6464 14.7506 14.8103ZM10.1634 23.6107L12.0005 18.1105L13.8376 23.6107H10.1634Z" fill="black"/>
</svg>
