<svg width="24" height="32" viewBox="0 0 24 32" fill="none" xmlns="http://www.w3.org/2000/svg">
<g clip-path="url(#clip0_7893_7360)">
<path d="M17 3.22727L12 1V5.45455L17 3.22727Z" fill="#4DA234"/>
<path d="M12 8V5.45455M12 5.45455V1L17 3.22727L12 5.45455Z" stroke="#4DA234"/>
<rect x="0.5" y="8.5" width="23" height="23" rx="1.5" fill="white" stroke="#002F6D"/>
<path fill-rule="evenodd" clip-rule="evenodd" d="M6.60312 19.4001C6.10607 19.4001 5.70312 18.9972 5.70312 18.5001V15.5001C5.70312 15.003 6.10607 14.6001 6.60312 14.6001C7.10018 14.6001 7.50312 15.003 7.50312 15.5001V18.5001C7.50312 18.9972 7.10018 19.4001 6.60312 19.4001Z" fill="#002F6D"/>
<path fill-rule="evenodd" clip-rule="evenodd" d="M9.60156 14.0001C9.60156 14.4972 9.19862 14.9001 8.70156 14.9001H4.50156C4.00451 14.9001 3.60156 14.4972 3.60156 14.0001C3.60156 13.503 4.00451 13.1001 4.50156 13.1001H8.70156C9.19862 13.1001 9.60156 13.503 9.60156 14.0001Z" fill="#002F6D"/>
<path fill-rule="evenodd" clip-rule="evenodd" d="M6.60312 27.8C6.10607 27.8 5.70312 27.3971 5.70312 26.9V23.9C5.70312 23.4029 6.10607 23 6.60312 23C7.10018 23 7.50312 23.4029 7.50312 23.9V26.9C7.50312 27.3971 7.10018 27.8 6.60312 27.8Z" fill="#002F6D"/>
<path fill-rule="evenodd" clip-rule="evenodd" d="M9.60156 22.4C9.60156 22.8971 9.19862 23.3 8.70156 23.3H4.50156C4.00451 23.3 3.60156 22.8971 3.60156 22.4C3.60156 21.9029 4.00451 21.5 4.50156 21.5H8.70156C9.19862 21.5 9.60156 21.9029 9.60156 22.4Z" fill="#002F6D"/>
<path fill-rule="evenodd" clip-rule="evenodd" d="M17.4 19.4001C16.9029 19.4001 16.5 18.9972 16.5 18.5001V15.5001C16.5 15.003 16.9029 14.6001 17.4 14.6001C17.8971 14.6001 18.3 15.003 18.3 15.5001V18.5001C18.3 18.9972 17.8971 19.4001 17.4 19.4001Z" fill="#002F6D"/>
<path fill-rule="evenodd" clip-rule="evenodd" d="M20.3984 14.0001C20.3984 14.4972 19.9955 14.9001 19.4984 14.9001H15.2984C14.8014 14.9001 14.3984 14.4972 14.3984 14.0001C14.3984 13.503 14.8014 13.1001 15.2984 13.1001H19.4984C19.9955 13.1001 20.3984 13.503 20.3984 14.0001Z" fill="#002F6D"/>
<path fill-rule="evenodd" clip-rule="evenodd" d="M17.4 27.8C16.9029 27.8 16.5 27.3971 16.5 26.9V23.9C16.5 23.4029 16.9029 23 17.4 23C17.8971 23 18.3 23.4029 18.3 23.9V26.9C18.3 27.3971 17.8971 27.8 17.4 27.8Z" fill="#002F6D"/>
<path fill-rule="evenodd" clip-rule="evenodd" d="M20.3984 22.4C20.3984 22.8971 19.9955 23.3 19.4984 23.3H15.2984C14.8014 23.3 14.3984 22.8971 14.3984 22.4C14.3984 21.9029 14.8014 21.5 15.2984 21.5H19.4984C19.9955 21.5 20.3984 21.9029 20.3984 22.4Z" fill="#002F6D"/>
</g>
<defs>
<clipPath id="clip0_7893_7360">
<rect width="24" height="32" fill="white"/>
</clipPath>
</defs>
</svg>
