<svg width="24" height="32" viewBox="0 0 24 32" fill="none" xmlns="http://www.w3.org/2000/svg">
<g clip-path="url(#clip0_7893_7269)">
<path d="M17 3.22727L12 1V5.45455L17 3.22727Z" fill="#EB00EB"/>
<path d="M12 8V5.45455M12 5.45455V1L17 3.22727L12 5.45455Z" stroke="#EB00EB"/>
<path d="M0.5 10C0.5 9.17157 1.17157 8.5 2 8.5H22C22.8284 8.5 23.5 9.17157 23.5 10V31.5H2C1.17157 31.5 0.5 30.8284 0.5 30V10Z" fill="#EB00EB" stroke="black"/>
<path d="M18.75 28.25H24V32H18.75V28.25Z" fill="#EB00EB"/>
<path d="M17.25 26H24V32H17.25V26Z" fill="#F9FAFF"/>
<path d="M18.5469 27.1362H18.0469V27.6362V30.909V31.409H18.5469H22.9105H23.4105V30.909V27.6362V27.1362H22.9105H18.5469Z" fill="white" stroke="black"/>
<path d="M3 12.125C3 11.5037 3.50368 11 4.125 11C4.74632 11 5.25 11.5037 5.25 12.125V27.875C5.25 28.4963 4.74632 29 4.125 29C3.50368 29 3 28.4963 3 27.875V12.125Z" fill="#FDFAFA"/>
<path d="M6.75 12.125C6.75 11.5037 7.25368 11 7.875 11C8.49632 11 9 11.5037 9 12.125V27.875C9 28.4963 8.49632 29 7.875 29C7.25368 29 6.75 28.4963 6.75 27.875V12.125Z" fill="#FDFAFA"/>
<path d="M10.5 13.25C10.5 12.0074 11.5074 11 12.75 11C13.9926 11 15 12.0074 15 13.25V26.75C15 27.9926 13.9926 29 12.75 29C11.5074 29 10.5 27.9926 10.5 26.75V13.25Z" fill="white"/>
</g>
<defs>
<clipPath id="clip0_7893_7269">
<rect width="24" height="32" fill="white"/>
</clipPath>
</defs>
</svg>
