<svg width="24" height="24" viewBox="0 0 24 24" fill="none" xmlns="http://www.w3.org/2000/svg">
<g clip-path="url(#clip0_7893_7518)">
<circle cx="12" cy="12" r="11.25" stroke="#D13513" stroke-width="1.5"/>
<rect x="5" y="10" width="1.5" height="2" fill="#D13513"/>
<rect x="5" y="13" width="1.5" height="2" fill="#D13513"/>
<circle cx="12" cy="12" r="2.25" stroke="#D13513" stroke-width="1.5"/>
<path fill-rule="evenodd" clip-rule="evenodd" d="M8 6.5H16C16.8284 6.5 17.5 7.17157 17.5 8V16C17.5 16.8284 16.8284 17.5 16 17.5H8C7.17157 17.5 6.5 16.8284 6.5 16H5C5 17.6569 6.34315 19 8 19H16C17.6569 19 19 17.6569 19 16V8C19 6.34315 17.6569 5 16 5H8C6.34315 5 5 6.34315 5 8V9H6.5V8C6.5 7.17157 7.17157 6.5 8 6.5Z" fill="#D13513"/>
</g>
<defs>
<clipPath id="clip0_7893_7518">
<rect width="24" height="24" fill="white"/>
</clipPath>
</defs>
</svg>
