<svg width="24" height="32" viewBox="0 0 24 32" fill="none" xmlns="http://www.w3.org/2000/svg">
<path d="M17 7.22727L12 5V9.45455L17 7.22727Z" fill="#4AA132"/>
<path d="M12 12V9.45455M12 9.45455V5L17 7.22727L12 9.45455Z" stroke="#4DA234"/>
<rect x="0.5" y="12.5" width="23" height="13" rx="3.5" fill="#0000FF" stroke="#0000D2"/>
<path d="M14.4183 16.2783C14.3678 15.7938 14.1551 15.4166 13.7802 15.1467C13.4089 14.8767 12.9259 14.7418 12.3311 14.7418C11.913 14.7418 11.5543 14.8065 11.2551 14.9359C10.9559 15.0653 10.727 15.241 10.5684 15.4629C10.4098 15.6847 10.3287 15.9381 10.3251 16.2228C10.3251 16.4595 10.3773 16.6647 10.4819 16.8385C10.59 17.0123 10.736 17.1602 10.9198 17.2823C11.1037 17.4006 11.3074 17.5005 11.5309 17.5818C11.7543 17.6632 11.9796 17.7316 12.2067 17.787L13.2449 18.0533C13.6631 18.1532 14.065 18.2881 14.4507 18.4582C14.84 18.6283 15.1879 18.8428 15.4943 19.1017C15.8043 19.3605 16.0494 19.673 16.2296 20.0391C16.4099 20.4052 16.5 20.8342 16.5 21.326C16.5 21.9917 16.3342 22.5778 16.0025 23.0844C15.6709 23.5873 15.1915 23.9812 14.5642 24.2659C13.9406 24.547 13.1854 24.6875 12.2987 24.6875C11.4371 24.6875 10.6891 24.5507 10.0547 24.277C9.42388 24.0034 8.93003 23.604 8.57316 23.0789C8.21989 22.5538 8.02884 21.914 8 21.1596H9.9736C10.0024 21.5553 10.1214 21.8844 10.3305 22.147C10.5395 22.4095 10.8117 22.6055 11.1469 22.735C11.4858 22.8644 11.8643 22.9291 12.2824 22.9291C12.7186 22.9291 13.1007 22.8625 13.4288 22.7294C13.7604 22.5926 14.0199 22.404 14.2074 22.1636C14.3948 21.9196 14.4904 21.6348 14.494 21.3094C14.4904 21.0135 14.4056 20.7695 14.2398 20.5772C14.074 20.3812 13.8415 20.2185 13.5423 20.089C13.2467 19.9559 12.9007 19.8376 12.5041 19.734L11.2443 19.4012C10.3323 19.1609 9.61132 18.7966 9.08142 18.3085C8.55513 17.8166 8.29198 17.1639 8.29198 16.3504C8.29198 15.681 8.46862 15.0949 8.82188 14.592C9.17875 14.0891 9.66359 13.6989 10.2764 13.4216C10.8892 13.1405 11.5831 13 12.3581 13C13.144 13 13.8325 13.1405 14.4237 13.4216C15.0184 13.6989 15.4853 14.0854 15.8241 14.5809C16.163 15.0727 16.3378 15.6385 16.3486 16.2783H14.4183Z" fill="white"/>
</svg>
