<svg width="24" height="32" viewBox="0 0 24 32" fill="none" xmlns="http://www.w3.org/2000/svg">
<g clip-path="url(#clip0_10306_42652)">
<path d="M17 3.22727L12 1V5.45455L17 3.22727Z" fill="#4AA132"/>
<path d="M12 8V5.45455M12 5.45455V1L17 3.22727L12 5.45455Z" stroke="#4AA132"/>
<g clip-path="url(#clip1_10306_42652)">
<circle cx="12" cy="20" r="11" stroke="#FF7A00" stroke-width="2"/>
<path d="M19.6016 19.3659C19.6016 19.3659 12.5708 27.0005 11.0724 20.5003C9.57388 14.0001 4.59963 19.3659 4.59963 19.3659" stroke="#FF7A00" stroke-width="3"/>
<path d="M4.96785 19.0336C5.26562 19.3303 5.48611 19.6418 5.60365 19.9026C5.66257 20.0333 5.69334 20.1463 5.69819 20.2354C5.70303 20.3245 5.6818 20.378 5.65113 20.4088C5.62045 20.4396 5.56698 20.461 5.47787 20.4565C5.38879 20.452 5.27569 20.4216 5.14474 20.3632C4.88353 20.2466 4.57122 20.0272 4.27346 19.7306C3.97569 19.4339 3.7552 19.1224 3.63766 18.8616C3.57874 18.7309 3.54797 18.6179 3.54312 18.5288C3.53828 18.4397 3.55951 18.3862 3.59018 18.3554C3.62086 18.3246 3.67433 18.3032 3.76344 18.3077C3.85252 18.3122 3.96562 18.3426 4.09657 18.401C4.35778 18.5176 4.67008 18.7369 4.96785 19.0336Z" fill="white" stroke="#FF7A00" stroke-width="0.2"/>
<path d="M19.9132 19.0152C20.1899 19.3068 20.3902 19.6121 20.4923 19.867C20.5435 19.9947 20.568 20.1048 20.5684 20.1914C20.5688 20.2778 20.5458 20.3308 20.513 20.3619C20.4803 20.393 20.4261 20.4132 20.3399 20.4083C20.2534 20.4033 20.1448 20.3731 20.0199 20.3153C19.7707 20.2 19.4763 19.984 19.1996 19.6924C18.9229 19.4008 18.7226 19.0955 18.6205 18.8406C18.5693 18.7129 18.5448 18.6028 18.5444 18.5162C18.5439 18.4299 18.567 18.3768 18.5998 18.3458C18.6325 18.3147 18.6867 18.2944 18.7729 18.2994C18.8593 18.3043 18.968 18.3346 19.0929 18.3924C19.3421 18.5077 19.6365 18.7236 19.9132 19.0152Z" fill="white" stroke="#FF7A00" stroke-width="0.2"/>
</g>
</g>
<defs>
<clipPath id="clip0_10306_42652">
<rect width="24" height="32" fill="white"/>
</clipPath>
<clipPath id="clip1_10306_42652">
<rect width="24" height="24" fill="white" transform="translate(0 8)"/>
</clipPath>
</defs>
</svg>
