<svg width="24" height="32" viewBox="0 0 24 32" fill="none" xmlns="http://www.w3.org/2000/svg">
<path d="M16 3.22727L11 1V5.45455L16 3.22727Z" fill="#4AA132"/>
<path d="M11 8V5.45455M11 5.45455V1L16 3.22727L11 5.45455Z" stroke="#4AA132"/>
<path fill-rule="evenodd" clip-rule="evenodd" d="M6.92139 11.38C6.21817 12.1125 6 12.9809 6 13.5V31C6 31.5523 5.55228 32 5 32C4.44772 32 4 31.5523 4 31V13.5C4 12.5191 4.38183 11.1375 5.47861 9.99497C6.5997 8.82717 8.37853 8 11 8C13.763 8 15.4715 8.986 16.442 10.3608C17.3671 11.6714 17.5 13.1685 17.5 14H19C19.5523 14 20 14.4477 20 15C20 15.5523 19.5523 16 19 16H13C12.4477 16 12 15.5523 12 15C12 14.4477 12.4477 14 13 14H15.5C15.5 13.3315 15.3829 12.3286 14.808 11.5142C14.2785 10.764 13.237 10 11 10C8.82147 10 7.6003 10.6728 6.92139 11.38Z" fill="black"/>
</svg>
