<svg width="24" height="24" viewBox="0 0 24 24" fill="none" xmlns="http://www.w3.org/2000/svg">
<rect x="0.5" y="0.5" width="23" height="23" rx="11.5" fill="white"/>
<rect x="0.5" y="0.5" width="23" height="23" rx="11.5" stroke="#4E2932"/>
<rect width="16" height="5" transform="translate(4 6)" fill="#4E2932"/>
<rect width="2" height="1" transform="translate(5 7)" fill="white"/>
<rect width="2" height="1" transform="translate(9 7)" fill="white"/>
<rect width="2" height="1" transform="translate(13 7)" fill="white"/>
<rect width="2" height="1" transform="translate(17 7)" fill="white"/>
<rect width="2" height="1" transform="translate(5 9)" fill="white"/>
<rect width="2" height="1" transform="translate(9 9)" fill="white"/>
<rect width="2" height="1" transform="translate(13 9)" fill="white"/>
<rect width="2" height="1" transform="translate(17 9)" fill="white"/>
<rect width="16" height="5" transform="translate(4 13)" fill="#4E2932"/>
<rect width="2" height="1" transform="translate(5 14)" fill="white"/>
<rect width="2" height="1" transform="translate(9 14)" fill="white"/>
<rect width="2" height="1" transform="translate(13 14)" fill="white"/>
<rect width="2" height="1" transform="translate(17 14)" fill="white"/>
<rect width="2" height="1" transform="translate(5 16)" fill="white"/>
<rect width="2" height="1" transform="translate(9 16)" fill="white"/>
<rect width="2" height="1" transform="translate(13 16)" fill="white"/>
<rect width="2" height="1" transform="translate(17 16)" fill="white"/>
</svg>
