<svg width="24" height="31" viewBox="0 0 24 31" fill="none" xmlns="http://www.w3.org/2000/svg">
<g clip-path="url(#clip0_9058_11409)">
<path d="M1.09091 0C0.795454 0 0.539772 0.10744 0.323863 0.322321C0.107954 0.537202 -7.15256e-07 0.791667 -7.15256e-07 1.08571V29.3143C-7.15256e-07 29.6083 0.107954 29.8628 0.323863 30.0777C0.539772 30.2926 0.795454 30.4 1.09091 30.4H22.9091C23.2045 30.4 23.4602 30.2926 23.6761 30.0777C23.892 29.8628 24 29.6083 24 29.3143V1.08571C24 0.791667 23.892 0.537202 23.6761 0.322321C23.4602 0.10744 23.2045 0 22.9091 0H1.09091ZM15.2727 4.88571V5.97143C15.2727 6.12976 15.2216 6.25982 15.1193 6.36161C15.017 6.46339 14.8864 6.51429 14.7273 6.51429H13.6364C13.4773 6.51429 13.3466 6.46339 13.2443 6.36161C13.142 6.25982 13.0909 6.12976 13.0909 5.97143V4.88571C13.0909 4.72738 13.142 4.59732 13.2443 4.49554C13.3466 4.39375 13.4773 4.34286 13.6364 4.34286H14.7273C14.8864 4.34286 15.017 4.39375 15.1193 4.49554C15.2216 4.59732 15.2727 4.72738 15.2727 4.88571ZM15.2727 9.22857V10.3143C15.2727 10.4726 15.2216 10.6027 15.1193 10.7045C15.017 10.8062 14.8864 10.8571 14.7273 10.8571H13.6364C13.4773 10.8571 13.3466 10.8062 13.2443 10.7045C13.142 10.6027 13.0909 10.4726 13.0909 10.3143V9.22857C13.0909 9.07024 13.142 8.94018 13.2443 8.83839C13.3466 8.73661 13.4773 8.68571 13.6364 8.68571H14.7273C14.8864 8.68571 15.017 8.73661 15.1193 8.83839C15.2216 8.94018 15.2727 9.07024 15.2727 9.22857ZM15.2727 13.5714V14.6571C15.2727 14.8155 15.2216 14.9455 15.1193 15.0473C15.017 15.1491 14.8864 15.2 14.7273 15.2H13.6364C13.4773 15.2 13.3466 15.1491 13.2443 15.0473C13.142 14.9455 13.0909 14.8155 13.0909 14.6571V13.5714C13.0909 13.4131 13.142 13.283 13.2443 13.1812C13.3466 13.0795 13.4773 13.0286 13.6364 13.0286H14.7273C14.8864 13.0286 15.017 13.0795 15.1193 13.1812C15.2216 13.283 15.2727 13.4131 15.2727 13.5714ZM15.2727 17.9143V19C15.2727 19.1583 15.2216 19.2884 15.1193 19.3902C15.017 19.492 14.8864 19.5429 14.7273 19.5429H13.6364C13.4773 19.5429 13.3466 19.492 13.2443 19.3902C13.142 19.2884 13.0909 19.1583 13.0909 19V17.9143C13.0909 17.756 13.142 17.6259 13.2443 17.5241C13.3466 17.4223 13.4773 17.3714 13.6364 17.3714H14.7273C14.8864 17.3714 15.017 17.4223 15.1193 17.5241C15.2216 17.6259 15.2727 17.756 15.2727 17.9143ZM17.4545 23.3429V22.2571C17.4545 22.0988 17.5057 21.9687 17.608 21.867C17.7102 21.7652 17.8409 21.7143 18 21.7143H19.0909C19.25 21.7143 19.3807 21.7652 19.483 21.867C19.5852 21.9687 19.6364 22.0988 19.6364 22.2571V23.3429C19.6364 23.5012 19.5852 23.6312 19.483 23.733C19.3807 23.8348 19.25 23.8857 19.0909 23.8857H18C17.8409 23.8857 17.7102 23.8348 17.608 23.733C17.5057 23.6312 17.4545 23.5012 17.4545 23.3429ZM17.4545 19V17.9143C17.4545 17.756 17.5057 17.6259 17.608 17.5241C17.7102 17.4223 17.8409 17.3714 18 17.3714H19.0909C19.25 17.3714 19.3807 17.4223 19.483 17.5241C19.5852 17.6259 19.6364 17.756 19.6364 17.9143V19C19.6364 19.1583 19.5852 19.2884 19.483 19.3902C19.3807 19.492 19.25 19.5429 19.0909 19.5429H18C17.8409 19.5429 17.7102 19.492 17.608 19.3902C17.5057 19.2884 17.4545 19.1583 17.4545 19ZM17.4545 14.6571V13.5714C17.4545 13.4131 17.5057 13.283 17.608 13.1812C17.7102 13.0795 17.8409 13.0286 18 13.0286H19.0909C19.25 13.0286 19.3807 13.0795 19.483 13.1812C19.5852 13.283 19.6364 13.4131 19.6364 13.5714V14.6571C19.6364 14.8155 19.5852 14.9455 19.483 15.0473C19.3807 15.1491 19.25 15.2 19.0909 15.2H18C17.8409 15.2 17.7102 15.1491 17.608 15.0473C17.5057 14.9455 17.4545 14.8155 17.4545 14.6571ZM17.4545 10.3143V9.22857C17.4545 9.07024 17.5057 8.94018 17.608 8.83839C17.7102 8.73661 17.8409 8.68571 18 8.68571H19.0909C19.25 8.68571 19.3807 8.73661 19.483 8.83839C19.5852 8.94018 19.6364 9.07024 19.6364 9.22857V10.3143C19.6364 10.4726 19.5852 10.6027 19.483 10.7045C19.3807 10.8062 19.25 10.8571 19.0909 10.8571H18C17.8409 10.8571 17.7102 10.8062 17.608 10.7045C17.5057 10.6027 17.4545 10.4726 17.4545 10.3143ZM17.4545 5.97143V4.88571C17.4545 4.72738 17.5057 4.59732 17.608 4.49554C17.7102 4.39375 17.8409 4.34286 18 4.34286H19.0909C19.25 4.34286 19.3807 4.39375 19.483 4.49554C19.5852 4.59732 19.6364 4.72738 19.6364 4.88571V5.97143C19.6364 6.12976 19.5852 6.25982 19.483 6.36161C19.3807 6.46339 19.25 6.51429 19.0909 6.51429H18C17.8409 6.51429 17.7102 6.46339 17.608 6.36161C17.5057 6.25982 17.4545 6.12976 17.4545 5.97143ZM8.72727 27.6857V24.4286C8.72727 24.2702 8.77841 24.1402 8.88068 24.0384C8.98295 23.9366 9.11364 23.8857 9.27273 23.8857H14.7273C14.8864 23.8857 15.017 23.9366 15.1193 24.0384C15.2216 24.1402 15.2727 24.2702 15.2727 24.4286V27.6857C15.2727 27.844 15.2216 27.9741 15.1193 28.0759C15.017 28.1777 14.8864 28.2286 14.7273 28.2286H9.27273C9.11364 28.2286 8.98295 28.1777 8.88068 28.0759C8.77841 27.9741 8.72727 27.844 8.72727 27.6857ZM8.72727 19V17.9143C8.72727 17.756 8.77841 17.6259 8.88068 17.5241C8.98295 17.4223 9.11364 17.3714 9.27273 17.3714H10.3636C10.5227 17.3714 10.6534 17.4223 10.7557 17.5241C10.858 17.6259 10.9091 17.756 10.9091 17.9143V19C10.9091 19.1583 10.858 19.2884 10.7557 19.3902C10.6534 19.492 10.5227 19.5429 10.3636 19.5429H9.27273C9.11364 19.5429 8.98295 19.492 8.88068 19.3902C8.77841 19.2884 8.72727 19.1583 8.72727 19ZM8.72727 14.6571V13.5714C8.72727 13.4131 8.77841 13.283 8.88068 13.1812C8.98295 13.0795 9.11364 13.0286 9.27273 13.0286H10.3636C10.5227 13.0286 10.6534 13.0795 10.7557 13.1812C10.858 13.283 10.9091 13.4131 10.9091 13.5714V14.6571C10.9091 14.8155 10.858 14.9455 10.7557 15.0473C10.6534 15.1491 10.5227 15.2 10.3636 15.2H9.27273C9.11364 15.2 8.98295 15.1491 8.88068 15.0473C8.77841 14.9455 8.72727 14.8155 8.72727 14.6571ZM8.72727 10.3143V9.22857C8.72727 9.07024 8.77841 8.94018 8.88068 8.83839C8.98295 8.73661 9.11364 8.68571 9.27273 8.68571H10.3636C10.5227 8.68571 10.6534 8.73661 10.7557 8.83839C10.858 8.94018 10.9091 9.07024 10.9091 9.22857V10.3143C10.9091 10.4726 10.858 10.6027 10.7557 10.7045C10.6534 10.8062 10.5227 10.8571 10.3636 10.8571H9.27273C9.11364 10.8571 8.98295 10.8062 8.88068 10.7045C8.77841 10.6027 8.72727 10.4726 8.72727 10.3143ZM8.72727 5.97143V4.88571C8.72727 4.72738 8.77841 4.59732 8.88068 4.49554C8.98295 4.39375 9.11364 4.34286 9.27273 4.34286H10.3636C10.5227 4.34286 10.6534 4.39375 10.7557 4.49554C10.858 4.59732 10.9091 4.72738 10.9091 4.88571V5.97143C10.9091 6.12976 10.858 6.25982 10.7557 6.36161C10.6534 6.46339 10.5227 6.51429 10.3636 6.51429H9.27273C9.11364 6.51429 8.98295 6.46339 8.88068 6.36161C8.77841 6.25982 8.72727 6.12976 8.72727 5.97143ZM4.36364 23.3429V22.2571C4.36364 22.0988 4.41477 21.9687 4.51704 21.867C4.61932 21.7652 4.75 21.7143 4.90909 21.7143H6C6.15909 21.7143 6.28977 21.7652 6.39204 21.867C6.49432 21.9687 6.54545 22.0988 6.54545 22.2571V23.3429C6.54545 23.5012 6.49432 23.6312 6.39204 23.733C6.28977 23.8348 6.15909 23.8857 6 23.8857H4.90909C4.75 23.8857 4.61932 23.8348 4.51704 23.733C4.41477 23.6312 4.36364 23.5012 4.36364 23.3429ZM4.36364 19V17.9143C4.36364 17.756 4.41477 17.6259 4.51704 17.5241C4.61932 17.4223 4.75 17.3714 4.90909 17.3714H6C6.15909 17.3714 6.28977 17.4223 6.39204 17.5241C6.49432 17.6259 6.54545 17.756 6.54545 17.9143V19C6.54545 19.1583 6.49432 19.2884 6.39204 19.3902C6.28977 19.492 6.15909 19.5429 6 19.5429H4.90909C4.75 19.5429 4.61932 19.492 4.51704 19.3902C4.41477 19.2884 4.36364 19.1583 4.36364 19ZM4.36364 14.6571V13.5714C4.36364 13.4131 4.41477 13.283 4.51704 13.1812C4.61932 13.0795 4.75 13.0286 4.90909 13.0286H6C6.15909 13.0286 6.28977 13.0795 6.39204 13.1812C6.49432 13.283 6.54545 13.4131 6.54545 13.5714V14.6571C6.54545 14.8155 6.49432 14.9455 6.39204 15.0473C6.28977 15.1491 6.15909 15.2 6 15.2H4.90909C4.75 15.2 4.61932 15.1491 4.51704 15.0473C4.41477 14.9455 4.36364 14.8155 4.36364 14.6571ZM4.36364 10.3143V9.22857C4.36364 9.07024 4.41477 8.94018 4.51704 8.83839C4.61932 8.73661 4.75 8.68571 4.90909 8.68571H6C6.15909 8.68571 6.28977 8.73661 6.39204 8.83839C6.49432 8.94018 6.54545 9.07024 6.54545 9.22857V10.3143C6.54545 10.4726 6.49432 10.6027 6.39204 10.7045C6.28977 10.8062 6.15909 10.8571 6 10.8571H4.90909C4.75 10.8571 4.61932 10.8062 4.51704 10.7045C4.41477 10.6027 4.36364 10.4726 4.36364 10.3143ZM4.36364 5.97143V4.88571C4.36364 4.72738 4.41477 4.59732 4.51704 4.49554C4.61932 4.39375 4.75 4.34286 4.90909 4.34286H6C6.15909 4.34286 6.28977 4.39375 6.39204 4.49554C6.49432 4.59732 6.54545 4.72738 6.54545 4.88571V5.97143C6.54545 6.12976 6.49432 6.25982 6.39204 6.36161C6.28977 6.46339 6.15909 6.51429 6 6.51429H4.90909C4.75 6.51429 4.61932 6.46339 4.51704 6.36161C4.41477 6.25982 4.36364 6.12976 4.36364 5.97143Z" fill="#4C4C4C"/>
</g>
<defs>
<clipPath id="clip0_9058_11409">
<rect width="24" height="30.4" fill="white" transform="matrix(-1 0 0 1 24 0)"/>
</clipPath>
</defs>
</svg>
