<svg width="24" height="32" viewBox="0 0 24 32" fill="none" xmlns="http://www.w3.org/2000/svg">
<g clip-path="url(#clip0_8965_11526)">
<path fill-rule="evenodd" clip-rule="evenodd" d="M12 8C5.3724 8 0 13.3724 0 20C0 26.6276 5.3724 32 12 32C18.6276 32 24 26.6276 24 20C24 13.3724 18.6276 8 12 8ZM7.8 17C7.8 16.4484 7.90864 15.9023 8.11971 15.3927C8.33078 14.8832 8.64015 14.4202 9.03015 14.0302C9.42016 13.6401 9.88316 13.3308 10.3927 13.1197C10.9023 12.9086 11.4484 12.8 12 12.8C12.5516 12.8 13.0977 12.9086 13.6073 13.1197C14.1168 13.3308 14.5798 13.6401 14.9698 14.0302C15.3599 14.4202 15.6692 14.8832 15.8803 15.3927C16.0914 15.9023 16.2 16.4484 16.2 17C16.2 18.1139 15.7575 19.1822 14.9698 19.9698C14.1822 20.7575 13.1139 21.2 12 21.2C10.8861 21.2 9.81781 20.7575 9.03015 19.9698C8.2425 19.1822 7.8 18.1139 7.8 17ZM19.5096 25.9808C18.6113 27.1107 17.4694 28.0231 16.169 28.6498C14.8686 29.2765 13.4435 29.6013 12 29.6C10.5565 29.6013 9.13136 29.2765 7.831 28.6498C6.53064 28.0231 5.38868 27.1107 4.4904 25.9808C6.4356 24.5852 9.09 23.6 12 23.6C14.91 23.6 17.5644 24.5852 19.5096 25.9808Z" fill="#FF0000"/>
<path d="M17 3.22727L12 1V5.45455L17 3.22727Z" fill="#FF12FF"/>
<path d="M12 8V5.45455M12 5.45455V1L17 3.22727L12 5.45455Z" stroke="#FF12FF"/>
</g>
<defs>
<clipPath id="clip0_8965_11526">
<rect width="24" height="32" fill="white"/>
</clipPath>
</defs>
</svg>
