<svg width="24" height="24" viewBox="0 0 24 24" fill="none" xmlns="http://www.w3.org/2000/svg">
<g clip-path="url(#clip0_7893_6963)">
<ellipse cx="11.9978" cy="12.0012" rx="2.85714" ry="2.85714" fill="#002157"/>
<path fill-rule="evenodd" clip-rule="evenodd" d="M0 10.4953C0.702775 4.88211 5.28592 0.468646 10.9924 0V3.51679C7.21347 3.95477 4.19658 6.82601 3.53963 10.4953H0ZM0.000117239 13.5056C0.703285 19.1184 5.28624 23.5314 10.9924 24V20.4832C7.21379 20.0453 4.19709 17.1745 3.53979 13.5056H0.000117239ZM20.4603 13.5056C19.8626 16.8417 17.3141 19.5179 14.0158 20.3052V23.8747C19.2466 23.0008 23.3387 18.7837 23.9999 13.5056H20.4603ZM24.0001 10.4953C23.3392 5.21679 19.2469 0.99922 14.0158 0.125321V3.69478C17.3144 4.48214 19.8631 7.1588 20.4604 10.4953H24.0001Z" fill="#002157"/>
</g>
<defs>
<clipPath id="clip0_7893_6963">
<rect width="24" height="24" fill="white"/>
</clipPath>
</defs>
</svg>
