<svg width="24" height="24" viewBox="0 0 24 24" fill="none" xmlns="http://www.w3.org/2000/svg">
<g clip-path="url(#clip0_7893_6976)">
<path d="M0.5 2C0.5 1.17157 1.17157 0.5 2 0.5H22C22.8284 0.5 23.5 1.17157 23.5 2V23.5H2C1.17157 23.5 0.5 22.8284 0.5 22V2Z" fill="#EB00EB" stroke="black"/>
<path d="M18.75 20.25H24V24H18.75V20.25Z" fill="#EB00EB"/>
<path d="M17.25 18H24V24H17.25V18Z" fill="#F9FAFF"/>
<path d="M18.5469 19.1362H18.0469V19.6362V22.909V23.409H18.5469H22.9105H23.4105V22.909V19.6362V19.1362H22.9105H18.5469Z" fill="white" stroke="black"/>
<path d="M3 4.125C3 3.50368 3.50368 3 4.125 3C4.74632 3 5.25 3.50368 5.25 4.125V19.875C5.25 20.4963 4.74632 21 4.125 21C3.50368 21 3 20.4963 3 19.875V4.125Z" fill="#FDFAFA"/>
<path d="M6.75 4.125C6.75 3.50368 7.25368 3 7.875 3C8.49632 3 9 3.50368 9 4.125V19.875C9 20.4963 8.49632 21 7.875 21C7.25368 21 6.75 20.4963 6.75 19.875V4.125Z" fill="#FDFAFA"/>
<path d="M10.5 5.25C10.5 4.00736 11.5074 3 12.75 3C13.9926 3 15 4.00736 15 5.25V18.75C15 19.9926 13.9926 21 12.75 21C11.5074 21 10.5 19.9926 10.5 18.75V5.25Z" fill="white"/>
</g>
<defs>
<clipPath id="clip0_7893_6976">
<rect width="24" height="24" fill="white"/>
</clipPath>
</defs>
</svg>
