<svg width="24" height="24" viewBox="0 0 24 24" fill="none" xmlns="http://www.w3.org/2000/svg">
<path d="M6.829 13.9806L8.14906 12.6605C7.04901 11.5605 6.49899 10.1304 6.49899 8.81035C6.49899 7.38028 7.04901 5.95022 8.14906 4.96018L6.829 3.64012C5.39894 5.07018 4.62891 6.94027 4.62891 8.81035C4.62891 10.6804 5.39894 12.5505 6.829 13.9806ZM19.8096 1L18.4895 2.32006C20.2496 4.08014 21.1296 6.50025 21.1296 8.81035C21.1296 11.1205 20.2496 13.5406 18.4895 15.3006L19.8096 16.6207C22.0097 14.4206 22.9997 11.6705 22.9997 8.81035C22.9997 5.95022 21.8997 3.2001 19.8096 1Z" fill="#E20000"/>
<path d="M5.5102 2.32006L4.19014 1C2.10005 3.2001 1 5.95022 1 8.81035C1 11.6705 2.10005 14.4206 4.19014 16.6207L5.5102 15.3006C3.75012 13.5406 2.87008 11.1205 2.87008 8.81035C2.87008 6.50025 3.75012 4.08014 5.5102 2.32006ZM17.1707 13.9806C18.6008 12.5505 19.3708 10.6804 19.3708 8.81035C19.2608 6.94026 18.6008 5.07018 17.1707 3.64012L15.8507 4.96018C16.9507 6.06023 17.5007 7.49029 17.5007 8.81035C17.5007 10.2404 16.9507 11.6705 15.8507 12.6605L17.1707 13.9806ZM14.7506 8.81035C14.7506 8.08097 14.4609 7.38147 13.9451 6.86572C13.4294 6.34997 12.7299 6.06023 12.0005 6.06023C11.2711 6.06023 10.5716 6.34997 10.0559 6.86572C9.54011 7.38147 9.25037 8.08097 9.25037 8.81035C9.25037 9.64639 9.62438 10.3724 10.2074 10.8784L6.50025 22.0109H8.70034L9.43738 19.8108H14.5746L15.3006 22.0109H17.5007L13.7936 10.8784C14.3766 10.3724 14.7506 9.64639 14.7506 8.81035ZM10.1634 17.6107L12.0005 12.1105L13.8376 17.6107H10.1634Z" fill="#E20000"/>
<path d="M6.829 13.9806L8.14906 12.6605C7.04901 11.5605 6.49899 10.1304 6.49899 8.81035C6.49899 7.38028 7.04901 5.95022 8.14906 4.96018L6.829 3.64012C5.39894 5.07018 4.62891 6.94027 4.62891 8.81035C4.62891 10.6804 5.39894 12.5505 6.829 13.9806ZM19.8096 1L18.4895 2.32006C20.2496 4.08014 21.1296 6.50025 21.1296 8.81035C21.1296 11.1205 20.2496 13.5406 18.4895 15.3006L19.8096 16.6207C22.0097 14.4206 22.9997 11.6705 22.9997 8.81035C22.9997 5.95022 21.8997 3.2001 19.8096 1Z" fill="#3C3C3C"/>
<path d="M5.5102 2.32006L4.19014 1C2.10005 3.2001 1 5.95022 1 8.81035C1 11.6705 2.10005 14.4206 4.19014 16.6207L5.5102 15.3006C3.75012 13.5406 2.87008 11.1205 2.87008 8.81035C2.87008 6.50025 3.75012 4.08014 5.5102 2.32006ZM17.1707 13.9806C18.6008 12.5505 19.3708 10.6804 19.3708 8.81035C19.2608 6.94026 18.6008 5.07018 17.1707 3.64012L15.8507 4.96018C16.9507 6.06023 17.5007 7.49029 17.5007 8.81035C17.5007 10.2404 16.9507 11.6705 15.8507 12.6605L17.1707 13.9806ZM14.7506 8.81035C14.7506 8.08097 14.4609 7.38147 13.9451 6.86572C13.4294 6.34997 12.7299 6.06023 12.0005 6.06023C11.2711 6.06023 10.5716 6.34997 10.0559 6.86572C9.54011 7.38147 9.25037 8.08097 9.25037 8.81035C9.25037 9.64639 9.62438 10.3724 10.2074 10.8784L6.50025 22.0109H8.70034L9.43738 19.8108H14.5746L15.3006 22.0109H17.5007L13.7936 10.8784C14.3766 10.3724 14.7506 9.64639 14.7506 8.81035ZM10.1634 17.6107L12.0005 12.1105L13.8376 17.6107H10.1634Z" fill="#3C3C3C"/>
</svg>
