<svg width="24" height="32" viewBox="0 0 24 32" fill="none" xmlns="http://www.w3.org/2000/svg">
<g clip-path="url(#clip0_7893_7342)">
<path d="M17 3.22727L12 1V5.45455L17 3.22727Z" fill="#4AA132"/>
<path d="M12 9.5V5.45455M12 5.45455V1L17 3.22727L12 5.45455Z" stroke="#4AA132"/>
<path d="M10.4297 30.6279V22.1279L13.9297 23.1279V31.1279L15.4297 32.1279H7.92969L10.4297 30.6279Z" fill="#F37E0C" stroke="#B2753E"/>
<path d="M9.92825 21.6282H12.4282C11.6268 23.6283 13.7622 23.7949 14.93 23.6282C16.9315 23.6282 17.764 21.628 17.93 20.6279C17.93 20.6279 20.3149 20.2844 20.93 19.1279C21.9756 17.1624 16.43 15.6279 16.43 15.6279C16.43 15.6279 21.93 15.6279 21.93 14.6279C21.93 13.6279 16.93 12.1284 16.93 12.1284C16.93 12.1284 17.3427 10.7916 16.93 10.1284C16.1791 8.92149 13.43 11.1279 13.43 11.1279L10.43 9.12841C6.83005 8.32841 8.59552 11.4617 9.92825 13.1284L6.42969 11.6279C6.42969 11.6279 3.78754 10.2382 3.42969 12.1284C3.07013 14.0276 4.09635 15.7947 6.42969 16.6279C4.02854 16.2279 2.59444 16.7948 2.42825 17.6282C0.82825 19.2282 4.09492 20.9615 5.92825 21.6282C5.92825 23.2282 8.59492 23.6282 9.92825 23.6282V21.6282Z" fill="#02CB2D" stroke="black"/>
<path d="M9.00148 17.3779C8.39484 16.7779 11.7819 16.2946 13.5512 16.1279H13.9297L12.7922 18.1279L9.00148 17.3779Z" fill="#A96C9D" stroke="black"/>
</g>
<defs>
<clipPath id="clip0_7893_7342">
<rect width="24" height="32" fill="white"/>
</clipPath>
</defs>
</svg>
