<svg width="24" height="24" viewBox="0 0 24 24" fill="none" xmlns="http://www.w3.org/2000/svg">
<g clip-path="url(#clip0_9556_18967)">
<path fill-rule="evenodd" clip-rule="evenodd" d="M19.6364 0H13.0909V2.18182H19.6364C20.8413 2.18182 21.8182 3.15865 21.8182 4.36364V9.81818H24V4.36364C24 1.95367 22.0463 0 19.6364 0ZM24 13.0909V19.6364C24 22.0463 22.0463 24 19.6364 24H13.0909V21.8182H19.6364C20.8413 21.8182 21.8182 20.8414 21.8182 19.6364V13.0909H24ZM2.18182 13.0909V19.6364C2.18182 20.8414 3.15865 21.8182 4.36364 21.8182H9.81818V24H4.36364C1.95367 24 -7.15256e-07 22.0463 -7.15256e-07 19.6364V13.0909H2.18182ZM-7.15256e-07 9.81818V4.36364C-7.15256e-07 1.95367 1.95367 0 4.36364 0H9.81818V2.18182H4.36364C3.15865 2.18182 2.18182 3.15865 2.18182 4.36364V9.81818H-7.15256e-07Z" fill="#002157"/>
<circle cx="3" cy="3" r="3" transform="matrix(-1 0 0 1 11 9)" fill="#002157"/>
<circle cx="3" cy="3" r="3" transform="matrix(-1 0 0 1 19 9)" fill="#002157"/>
</g>
<defs>
<clipPath id="clip0_9556_18967">
<rect width="24" height="24" fill="white"/>
</clipPath>
</defs>
</svg>
