<svg width="24" height="32" viewBox="0 0 24 32" fill="none" xmlns="http://www.w3.org/2000/svg">
<g clip-path="url(#clip0_7893_7050)">
<path fill-rule="evenodd" clip-rule="evenodd" d="M12 30C17.5228 30 22 25.5228 22 20C22 14.4772 17.5228 10 12 10C6.47715 10 2 14.4772 2 20C2 25.5228 6.47715 30 12 30ZM12 32C18.6274 32 24 26.6274 24 20C24 13.3726 18.6274 8 12 8C5.37258 8 0 13.3726 0 20C0 26.6274 5.37258 32 12 32Z" fill="#0000FF"/>
<path d="M11.7478 8.5L21.8725 27.1276L2.25 26.7499L11.7478 8.5Z" fill="#0000FF"/>
<path d="M17 3.22727L12 1V5.45455L17 3.22727Z" fill="#4DA234"/>
<path d="M12 8V5.45455M12 5.45455V1L17 3.22727L12 5.45455Z" stroke="#4DA234"/>
</g>
<defs>
<clipPath id="clip0_7893_7050">
<rect width="24" height="32" fill="white"/>
</clipPath>
</defs>
</svg>
