<svg width="24" height="32" viewBox="0 0 24 32" fill="none" xmlns="http://www.w3.org/2000/svg">
<g clip-path="url(#clip0_7893_7446)">
<path fill-rule="evenodd" clip-rule="evenodd" d="M12 30C17.5228 30 22 25.5228 22 20C22 14.4772 17.5228 10 12 10C6.47715 10 2 14.4772 2 20C2 25.5228 6.47715 30 12 30ZM12 32C18.6274 32 24 26.6274 24 20C24 13.3726 18.6274 8 12 8C5.37258 8 0 13.3726 0 20C0 26.6274 5.37258 32 12 32Z" fill="#0000FF"/>
<path d="M5 14C5 13.4477 5.44772 13 6 13H14C16.7614 13 19 15.2386 19 18V26C19 26.5523 18.5523 27 18 27H6C5.44772 27 5 26.5523 5 26V14Z" fill="#0000FF"/>
<path d="M17 3.22727L12 1V5.45455L17 3.22727Z" fill="#4DA234"/>
<path d="M12 8V5.45455M12 5.45455V1L17 3.22727L12 5.45455Z" stroke="#4DA234"/>
<circle cx="12" cy="20" r="11.5" fill="#F26D7D" stroke="#7A0026"/>
<path d="M8 15H14.5L16 22V26H8V15Z" fill="#F3F3F3"/>
<path d="M8.83333 13C8.3471 13 7.88079 13.1844 7.53697 13.5126C7.19315 13.8408 7 14.2859 7 14.75V26.4167C7 26.5714 7.06438 26.7197 7.17899 26.8291C7.2936 26.9385 7.44903 27 7.61111 27H9.44444V24.0833C9.44444 23.9286 9.50883 23.7802 9.62343 23.6709C9.73804 23.5615 9.89348 23.5 10.0556 23.5H14.9444C15.1065 23.5 15.262 23.5615 15.3766 23.6709C15.4912 23.7802 15.5556 23.9286 15.5556 24.0833V27H17.3889C17.551 27 17.7064 26.9385 17.821 26.8291C17.9356 26.7197 18 26.5714 18 26.4167V20.5833C18 20.1192 17.8068 19.6741 17.463 19.3459C17.1192 19.0177 16.6529 18.8333 16.1667 18.8333H15.5556V14.75C15.5556 14.2859 15.3624 13.8408 15.0186 13.5126C14.6748 13.1844 14.2085 13 13.7222 13H8.83333ZM10.6667 15.9167C10.6667 16.0714 10.6023 16.2197 10.4877 16.3291C10.3731 16.4385 10.2176 16.5 10.0556 16.5C9.89348 16.5 9.73804 16.4385 9.62343 16.3291C9.50883 16.2197 9.44444 16.0714 9.44444 15.9167C9.44444 15.762 9.50883 15.6136 9.62343 15.5042C9.73804 15.3948 9.89348 15.3333 10.0556 15.3333C10.2176 15.3333 10.3731 15.3948 10.4877 15.5042C10.6023 15.6136 10.6667 15.762 10.6667 15.9167ZM10.6667 18.8333C10.6667 18.988 10.6023 19.1364 10.4877 19.2458C10.3731 19.3552 10.2176 19.4167 10.0556 19.4167C9.89348 19.4167 9.73804 19.3552 9.62343 19.2458C9.50883 19.1364 9.44444 18.988 9.44444 18.8333C9.44444 18.6786 9.50883 18.5303 9.62343 18.4209C9.73804 18.3115 9.89348 18.25 10.0556 18.25C10.2176 18.25 10.3731 18.3115 10.4877 18.4209C10.6023 18.5303 10.6667 18.6786 10.6667 18.8333ZM10.6667 21.75C10.6667 21.9047 10.6023 22.0531 10.4877 22.1625C10.3731 22.2719 10.2176 22.3333 10.0556 22.3333C9.89348 22.3333 9.73804 22.2719 9.62343 22.1625C9.50883 22.0531 9.44444 21.9047 9.44444 21.75C9.44444 21.5953 9.50883 21.4469 9.62343 21.3375C9.73804 21.2281 9.89348 21.1667 10.0556 21.1667C10.2176 21.1667 10.3731 21.2281 10.4877 21.3375C10.6023 21.4469 10.6667 21.5953 10.6667 21.75ZM13.1111 15.9167C13.1111 16.0714 13.0467 16.2197 12.9321 16.3291C12.8175 16.4385 12.6621 16.5 12.5 16.5C12.3379 16.5 12.1825 16.4385 12.0679 16.3291C11.9533 16.2197 11.8889 16.0714 11.8889 15.9167C11.8889 15.762 11.9533 15.6136 12.0679 15.5042C12.1825 15.3948 12.3379 15.3333 12.5 15.3333C12.6621 15.3333 12.8175 15.3948 12.9321 15.5042C13.0467 15.6136 13.1111 15.762 13.1111 15.9167ZM13.1111 18.8333C13.1111 18.988 13.0467 19.1364 12.9321 19.2458C12.8175 19.3552 12.6621 19.4167 12.5 19.4167C12.3379 19.4167 12.1825 19.3552 12.0679 19.2458C11.9533 19.1364 11.8889 18.988 11.8889 18.8333C11.8889 18.6786 11.9533 18.5303 12.0679 18.4209C12.1825 18.3115 12.3379 18.25 12.5 18.25C12.6621 18.25 12.8175 18.3115 12.9321 18.4209C13.0467 18.5303 13.1111 18.6786 13.1111 18.8333ZM13.1111 21.75C13.1111 21.9047 13.0467 22.0531 12.9321 22.1625C12.8175 22.2719 12.6621 22.3333 12.5 22.3333C12.3379 22.3333 12.1825 22.2719 12.0679 22.1625C11.9533 22.0531 11.8889 21.9047 11.8889 21.75C11.8889 21.5953 11.9533 21.4469 12.0679 21.3375C12.1825 21.2281 12.3379 21.1667 12.5 21.1667C12.6621 21.1667 12.8175 21.2281 12.9321 21.3375C13.0467 21.4469 13.1111 21.5953 13.1111 21.75ZM15.5556 21.75C15.5556 21.9047 15.4912 22.0531 15.3766 22.1625C15.262 22.2719 15.1065 22.3333 14.9444 22.3333C14.7824 22.3333 14.6269 22.2719 14.5123 22.1625C14.3977 22.0531 14.3333 21.9047 14.3333 21.75C14.3333 21.5953 14.3977 21.4469 14.5123 21.3375C14.6269 21.2281 14.7824 21.1667 14.9444 21.1667C15.1065 21.1667 15.262 21.2281 15.3766 21.3375C15.4912 21.4469 15.5556 21.5953 15.5556 21.75ZM14.3333 27V24.6667H13.1148V27H14.3333ZM11.8926 27V24.6667H10.6667V27H11.8926Z" fill="#030302"/>
<line x1="6" y1="26.5" x2="19" y2="26.5" stroke="black"/>
</g>
<defs>
<clipPath id="clip0_7893_7446">
<rect width="24" height="32" fill="white"/>
</clipPath>
</defs>
</svg>
