<svg width="24" height="24" viewBox="0 0 24 24" fill="none" xmlns="http://www.w3.org/2000/svg">
<g clip-path="url(#clip0_7893_7008)">
<path d="M10.4297 22.6279V14.1279L13.9297 15.1279V23.1279L15.4297 24.1279H7.92969L10.4297 22.6279Z" fill="#F37E0C" stroke="#B2753E"/>
<path d="M9.92825 13.6282H12.4282C11.6268 15.6283 13.7622 15.7949 14.93 15.6282C16.9315 15.6282 17.764 13.628 17.93 12.6279C17.93 12.6279 20.3149 12.2844 20.93 11.1279C21.9756 9.16236 16.43 7.62793 16.43 7.62793C16.43 7.62793 21.93 7.62793 21.93 6.62793C21.93 5.62793 16.93 4.12841 16.93 4.12841C16.93 4.12841 17.3427 2.79156 16.93 2.12841C16.1791 0.921492 13.43 3.12793 13.43 3.12793L10.43 1.12841C6.83005 0.328407 8.59552 3.46174 9.92825 5.12841L6.42969 3.62793C6.42969 3.62793 3.78754 2.23823 3.42969 4.12841C3.07013 6.0276 4.09635 7.79468 6.42969 8.62793C4.02854 8.22793 2.59444 8.79482 2.42825 9.62816C0.82825 11.2282 4.09492 12.9615 5.92825 13.6282C5.92825 15.2282 8.59492 15.6282 9.92825 15.6282V13.6282Z" fill="#02CB2D" stroke="black"/>
<path d="M9.00148 9.37793C8.39484 8.77793 11.7819 8.2946 13.5512 8.12793H13.9297L12.7922 10.1279L9.00148 9.37793Z" fill="#A96C9D" stroke="black"/>
</g>
<defs>
<clipPath id="clip0_7893_7008">
<rect width="24" height="24" fill="white"/>
</clipPath>
</defs>
</svg>
