<svg width="24" height="32" viewBox="0 0 24 32" fill="none" xmlns="http://www.w3.org/2000/svg">
<g clip-path="url(#clip0_9556_19056)">
<path fill-rule="evenodd" clip-rule="evenodd" d="M19.6364 8H13.0909V10.1818H19.6364C20.8413 10.1818 21.8182 11.1587 21.8182 12.3636V17.8182H24V12.3636C24 9.95367 22.0463 8 19.6364 8ZM24 21.0909V27.6364C24 30.0463 22.0463 32 19.6364 32H13.0909V29.8182H19.6364C20.8413 29.8182 21.8182 28.8414 21.8182 27.6364V21.0909H24ZM2.18182 21.0909V27.6364C2.18182 28.8414 3.15865 29.8182 4.36364 29.8182H9.81818V32H4.36364C1.95367 32 -7.15256e-07 30.0463 -7.15256e-07 27.6364V21.0909H2.18182ZM-7.15256e-07 17.8182V12.3636C-7.15256e-07 9.95367 1.95367 8 4.36364 8H9.81818V10.1818H4.36364C3.15865 10.1818 2.18182 11.1587 2.18182 12.3636V17.8182H-7.15256e-07Z" fill="#002157"/>
<circle cx="3" cy="3" r="3" transform="matrix(-1 0 0 1 11 17)" fill="#002157"/>
<circle cx="3" cy="3" r="3" transform="matrix(-1 0 0 1 19 17)" fill="#002157"/>
</g>
<path d="M16 3.22727L11 1V5.45455L16 3.22727Z" fill="#EB00EB"/>
<path d="M11 8V5.45455M11 5.45455V1L16 3.22727L11 5.45455Z" stroke="#EB00EB"/>
<defs>
<clipPath id="clip0_9556_19056">
<rect width="24" height="24" fill="white" transform="translate(0 8)"/>
</clipPath>
</defs>
</svg>
