<svg width="24" height="24" viewBox="0 0 24 24" fill="none" xmlns="http://www.w3.org/2000/svg">
<g clip-path="url(#clip0_7893_7477)">
<circle cx="12" cy="12" r="11.5" fill="#F26D7D" stroke="#7A0026"/>
<path d="M8 7H14.5L16 14V18H8V7Z" fill="#F3F3F3"/>
<path d="M8.83333 5C8.3471 5 7.88079 5.18437 7.53697 5.51256C7.19315 5.84075 7 6.28587 7 6.75V18.4167C7 18.5714 7.06438 18.7197 7.17899 18.8291C7.2936 18.9385 7.44903 19 7.61111 19H9.44444V16.0833C9.44444 15.9286 9.50883 15.7802 9.62343 15.6709C9.73804 15.5615 9.89348 15.5 10.0556 15.5H14.9444C15.1065 15.5 15.262 15.5615 15.3766 15.6709C15.4912 15.7802 15.5556 15.9286 15.5556 16.0833V19H17.3889C17.551 19 17.7064 18.9385 17.821 18.8291C17.9356 18.7197 18 18.5714 18 18.4167V12.5833C18 12.1192 17.8068 11.6741 17.463 11.3459C17.1192 11.0177 16.6529 10.8333 16.1667 10.8333H15.5556V6.75C15.5556 6.28587 15.3624 5.84075 15.0186 5.51256C14.6748 5.18437 14.2085 5 13.7222 5H8.83333ZM10.6667 7.91667C10.6667 8.07138 10.6023 8.21975 10.4877 8.32915C10.3731 8.43854 10.2176 8.5 10.0556 8.5C9.89348 8.5 9.73804 8.43854 9.62343 8.32915C9.50883 8.21975 9.44444 8.07138 9.44444 7.91667C9.44444 7.76196 9.50883 7.61358 9.62343 7.50419C9.73804 7.39479 9.89348 7.33333 10.0556 7.33333C10.2176 7.33333 10.3731 7.39479 10.4877 7.50419C10.6023 7.61358 10.6667 7.76196 10.6667 7.91667ZM10.6667 10.8333C10.6667 10.988 10.6023 11.1364 10.4877 11.2458C10.3731 11.3552 10.2176 11.4167 10.0556 11.4167C9.89348 11.4167 9.73804 11.3552 9.62343 11.2458C9.50883 11.1364 9.44444 10.988 9.44444 10.8333C9.44444 10.6786 9.50883 10.5303 9.62343 10.4209C9.73804 10.3115 9.89348 10.25 10.0556 10.25C10.2176 10.25 10.3731 10.3115 10.4877 10.4209C10.6023 10.5303 10.6667 10.6786 10.6667 10.8333ZM10.6667 13.75C10.6667 13.9047 10.6023 14.0531 10.4877 14.1625C10.3731 14.2719 10.2176 14.3333 10.0556 14.3333C9.89348 14.3333 9.73804 14.2719 9.62343 14.1625C9.50883 14.0531 9.44444 13.9047 9.44444 13.75C9.44444 13.5953 9.50883 13.4469 9.62343 13.3375C9.73804 13.2281 9.89348 13.1667 10.0556 13.1667C10.2176 13.1667 10.3731 13.2281 10.4877 13.3375C10.6023 13.4469 10.6667 13.5953 10.6667 13.75ZM13.1111 7.91667C13.1111 8.07138 13.0467 8.21975 12.9321 8.32915C12.8175 8.43854 12.6621 8.5 12.5 8.5C12.3379 8.5 12.1825 8.43854 12.0679 8.32915C11.9533 8.21975 11.8889 8.07138 11.8889 7.91667C11.8889 7.76196 11.9533 7.61358 12.0679 7.50419C12.1825 7.39479 12.3379 7.33333 12.5 7.33333C12.6621 7.33333 12.8175 7.39479 12.9321 7.50419C13.0467 7.61358 13.1111 7.76196 13.1111 7.91667ZM13.1111 10.8333C13.1111 10.988 13.0467 11.1364 12.9321 11.2458C12.8175 11.3552 12.6621 11.4167 12.5 11.4167C12.3379 11.4167 12.1825 11.3552 12.0679 11.2458C11.9533 11.1364 11.8889 10.988 11.8889 10.8333C11.8889 10.6786 11.9533 10.5303 12.0679 10.4209C12.1825 10.3115 12.3379 10.25 12.5 10.25C12.6621 10.25 12.8175 10.3115 12.9321 10.4209C13.0467 10.5303 13.1111 10.6786 13.1111 10.8333ZM13.1111 13.75C13.1111 13.9047 13.0467 14.0531 12.9321 14.1625C12.8175 14.2719 12.6621 14.3333 12.5 14.3333C12.3379 14.3333 12.1825 14.2719 12.0679 14.1625C11.9533 14.0531 11.8889 13.9047 11.8889 13.75C11.8889 13.5953 11.9533 13.4469 12.0679 13.3375C12.1825 13.2281 12.3379 13.1667 12.5 13.1667C12.6621 13.1667 12.8175 13.2281 12.9321 13.3375C13.0467 13.4469 13.1111 13.5953 13.1111 13.75ZM15.5556 13.75C15.5556 13.9047 15.4912 14.0531 15.3766 14.1625C15.262 14.2719 15.1065 14.3333 14.9444 14.3333C14.7824 14.3333 14.6269 14.2719 14.5123 14.1625C14.3977 14.0531 14.3333 13.9047 14.3333 13.75C14.3333 13.5953 14.3977 13.4469 14.5123 13.3375C14.6269 13.2281 14.7824 13.1667 14.9444 13.1667C15.1065 13.1667 15.262 13.2281 15.3766 13.3375C15.4912 13.4469 15.5556 13.5953 15.5556 13.75ZM14.3333 19V16.6667H13.1148V19H14.3333ZM11.8926 19V16.6667H10.6667V19H11.8926Z" fill="#030302"/>
<line x1="6" y1="18.5" x2="19" y2="18.5" stroke="black"/>
</g>
<defs>
<clipPath id="clip0_7893_7477">
<rect width="24" height="24" fill="white"/>
</clipPath>
</defs>
</svg>
