<svg width="24" height="24" viewBox="0 0 24 24" fill="none" xmlns="http://www.w3.org/2000/svg">
<g clip-path="url(#clip0_7893_6940)">
<path d="M1.5 1.50049H23.5V23.5005H1.5V1.50049Z" stroke="#EB00EB"/>
<path d="M0.5 0.5H21.5V21.5H0.5V0.5Z" fill="white" stroke="#EB00EB"/>
<path d="M5.25 16.2886V5.41341C5.25 4.68539 5.84018 4.09521 6.5682 4.09521H15.2405C16.3503 4.09521 17.25 4.30359 17.25 5.41341C17.25 8.37936 11.2715 5.99951 9.375 7.87451C8.04167 9.19271 8.58333 13.3225 8.58333 15.2999C8.58333 19.5181 5.25 17.9363 5.25 16.2886Z" fill="#383838"/>
<path d="M16.5 11.625C16.5 12.2463 14.989 12.75 13.125 12.75C11.261 12.75 9.75 12.2463 9.75 11.625C9.75 11.0037 11.261 10.5 13.125 10.5C14.989 10.5 16.5 11.0037 16.5 11.625Z" fill="#383838"/>
</g>
<defs>
<clipPath id="clip0_7893_6940">
<rect width="24" height="24" fill="white"/>
</clipPath>
</defs>
</svg>
