<svg width="24" height="24" viewBox="0 0 24 24" fill="none" xmlns="http://www.w3.org/2000/svg">
<rect x="0.5" y="6.5" width="23" height="13" rx="3.5" fill="#FF00FF" stroke="#E002E0"/>
<path d="M14.4183 10.2783C14.3678 9.79383 14.1551 9.41664 13.7802 9.14668C13.4089 8.87673 12.9259 8.74175 12.3311 8.74175C11.913 8.74175 11.5543 8.80647 11.2551 8.9359C10.9559 9.06533 10.727 9.24098 10.5684 9.46286C10.4098 9.68474 10.3287 9.93805 10.3251 10.2228C10.3251 10.4595 10.3773 10.6647 10.4819 10.8385C10.59 11.0123 10.736 11.1602 10.9198 11.2823C11.1037 11.4006 11.3074 11.5005 11.5309 11.5818C11.7543 11.6632 11.9796 11.7316 12.2067 11.787L13.2449 12.0533C13.6631 12.1532 14.065 12.2881 14.4507 12.4582C14.84 12.6283 15.1879 12.8428 15.4943 13.1017C15.8043 13.3605 16.0494 13.673 16.2296 14.0391C16.4099 14.4052 16.5 14.8342 16.5 15.326C16.5 15.9917 16.3342 16.5778 16.0025 17.0844C15.6709 17.5873 15.1915 17.9812 14.5642 18.2659C13.9406 18.547 13.1854 18.6875 12.2987 18.6875C11.4371 18.6875 10.6891 18.5507 10.0547 18.277C9.42388 18.0034 8.93003 17.604 8.57316 17.0789C8.21989 16.5538 8.02884 15.914 8 15.1596H9.9736C10.0024 15.5553 10.1214 15.8844 10.3305 16.147C10.5395 16.4095 10.8117 16.6055 11.1469 16.735C11.4858 16.8644 11.8643 16.9291 12.2824 16.9291C12.7186 16.9291 13.1007 16.8625 13.4288 16.7294C13.7604 16.5926 14.0199 16.404 14.2074 16.1636C14.3948 15.9196 14.4904 15.6348 14.494 15.3094C14.4904 15.0135 14.4056 14.7695 14.2398 14.5772C14.074 14.3812 13.8415 14.2185 13.5423 14.089C13.2467 13.9559 12.9007 13.8376 12.5041 13.734L11.2443 13.4012C10.3323 13.1609 9.61132 12.7966 9.08142 12.3085C8.55513 11.8166 8.29198 11.1639 8.29198 10.3504C8.29198 9.68104 8.46862 9.09491 8.82188 8.59199C9.17875 8.08906 9.66359 7.69892 10.2764 7.42157C10.8892 7.14052 11.5831 7 12.3581 7C13.144 7 13.8325 7.14052 14.4237 7.42157C15.0184 7.69892 15.4853 8.08536 15.8241 8.58089C16.163 9.07272 16.3378 9.63852 16.3486 10.2783H14.4183Z" fill="white"/>
</svg>
