<svg width="24" height="32" viewBox="0 0 24 32" fill="none" xmlns="http://www.w3.org/2000/svg">
<g clip-path="url(#clip0_10311_42787)">
<path d="M17 3.22727L12 1V5.45455L17 3.22727Z" fill="#4AA132"/>
<path d="M12 8V5.45455M12 5.45455V1L17 3.22727L12 5.45455Z" stroke="#4AA132"/>
<g clip-path="url(#clip1_10311_42787)">
<circle cx="12" cy="20" r="12" fill="#FFD600"/>
<g clip-path="url(#clip2_10311_42787)">
<path d="M14.525 14.7493C14.9785 15.1262 15.4146 15.5234 15.8321 15.9398C16.25 16.355 16.6486 16.7893 17.0267 17.2411C16.9796 16.7686 16.6609 16.1664 16.132 15.6401C15.6039 15.1142 14.9993 14.7962 14.525 14.7493ZM18.3438 17.4511C18.2676 16.6901 17.7538 15.7199 16.9026 14.8727C16.0523 14.0255 15.0783 13.5132 14.3144 13.4375C15.0449 14.0439 15.7472 14.6836 16.419 15.3546C17.0925 16.0234 17.7348 16.723 18.3438 17.4511ZM14.38 17.6134C14.5488 17.7285 14.7525 17.7812 14.9559 17.7625C15.1594 17.7438 15.35 17.6548 15.495 17.5108C15.5764 17.4298 15.641 17.3335 15.6851 17.2275C15.7292 17.1214 15.7519 17.0077 15.7519 16.8929C15.7519 16.778 15.7292 16.6643 15.6851 16.5583C15.641 16.4522 15.5764 16.3559 15.495 16.2749C15.3301 16.111 15.107 16.019 14.8745 16.0191C14.642 16.0192 14.419 16.1113 14.2542 16.2753C14.1099 16.4191 14.0205 16.6089 14.0017 16.8118C13.9829 17.0146 14.0358 17.2176 14.1512 17.3855L13.8198 17.6681C11.8333 15.7234 9.81119 14.4582 8.79116 14.4582C8.59603 14.4582 8.43788 14.4825 8.28234 14.6437C7.65934 15.2886 7.31984 16.1288 7.25181 17.0563C7.16803 18.1971 7.49353 19.4656 8.19441 20.6499C8.17384 20.7147 8.06534 20.9734 8.10494 21.2232C8.10494 21.2232 7.88487 21.5284 7.73175 21.7852L7.73 21.785H7.21703C6.82459 21.785 6.50697 22.2606 6.50697 22.847C6.50697 23.3217 6.71609 23.719 7.00331 23.8553C7.00287 23.8732 7.00069 23.9259 7.00069 23.9259C6.49341 24.0053 6.10447 24.4382 6.10447 24.9656V25.9588H5.65625V26.5625H11.8659V25.9588H11.4177V24.9656C11.4177 24.4382 11.0093 23.9712 10.502 23.8922L10.7041 23.6457C10.8553 23.6457 11.1033 23.5475 11.1033 23.5475C12.2922 24.2451 13.5654 24.573 14.7103 24.4861C15.7349 24.4085 16.5585 24.1007 17.1712 23.4149C17.7916 22.7199 16.4209 20.3006 14.0958 17.9438L14.38 17.6134ZM8.19178 21.6671C8.55709 22.3524 9.68562 23.2557 10.3624 23.5451L10.15 23.8478H8.03822C8.36262 23.5779 8.44028 23.227 8.44028 22.8472C8.44028 22.4321 8.27928 22.0762 8.04675 21.9016C8.09597 21.8198 8.19178 21.6671 8.19178 21.6671ZM7.64447 22.0037H7.73C7.96253 22.0037 8.22153 22.3502 8.22153 22.847C8.22153 23.3442 7.96231 23.6908 7.73 23.6908H7.64425C7.81531 23.4967 7.92753 23.1927 7.92753 22.847C7.92753 22.5014 7.81531 22.1978 7.64447 22.0037ZM11.6472 26.1775V26.3438H7.541V26.1775H11.6472ZM11.1989 24.9656V25.8909H7.99513V24.1283H10.3572C10.8212 24.1285 11.1989 24.5041 11.1989 24.9656ZM11.8526 18.9769L11.2388 19.3947C9.47825 17.5126 8.55841 15.8577 8.55841 15.1254C8.55841 15.0352 8.57416 14.9657 8.60084 14.9388C8.62819 14.9117 8.69906 14.8955 8.79094 14.8955C9.57909 14.8955 11.4297 15.9468 13.4853 17.9529L12.0514 19.1753L11.8526 18.9769ZM16.8812 22.9525C16.8812 23.0428 16.8652 23.1124 16.8385 23.1393C16.8112 23.1664 16.7403 23.1826 16.6484 23.1826C15.9128 23.1826 14.2516 22.2669 12.3631 20.5147L12.7823 19.9031L12.5832 19.7049L13.8102 18.2767C15.8251 20.3242 16.8812 22.1678 16.8812 22.9525Z" fill="black"/>
</g>
</g>
</g>
<defs>
<clipPath id="clip0_10311_42787">
<rect width="24" height="32" fill="white"/>
</clipPath>
<clipPath id="clip1_10311_42787">
<rect width="24" height="24" fill="white" transform="translate(0 8)"/>
</clipPath>
<clipPath id="clip2_10311_42787">
<rect width="14" height="14" fill="white" transform="translate(5 13)"/>
</clipPath>
</defs>
</svg>
