<svg width="24" height="24" viewBox="0 0 24 24" fill="none" xmlns="http://www.w3.org/2000/svg">
<g clip-path="url(#clip0_10306_42648)">
<circle cx="12" cy="12" r="11" stroke="#FF7A00" stroke-width="2"/>
<path d="M19.6016 11.3659C19.6016 11.3659 12.5708 19.0005 11.0724 12.5003C9.57388 6.00011 4.59963 11.3659 4.59963 11.3659" stroke="#FF7A00" stroke-width="3"/>
<path d="M4.96785 11.0336C5.26562 11.3303 5.48611 11.6418 5.60365 11.9026C5.66257 12.0333 5.69334 12.1463 5.69819 12.2354C5.70303 12.3245 5.6818 12.378 5.65113 12.4088C5.62045 12.4396 5.56698 12.461 5.47787 12.4565C5.38879 12.452 5.27569 12.4216 5.14474 12.3632C4.88353 12.2466 4.57122 12.0272 4.27346 11.7306C3.97569 11.4339 3.7552 11.1224 3.63766 10.8616C3.57874 10.7309 3.54797 10.6179 3.54312 10.5288C3.53828 10.4397 3.55951 10.3862 3.59018 10.3554C3.62086 10.3246 3.67433 10.3032 3.76344 10.3077C3.85252 10.3122 3.96562 10.3426 4.09657 10.401C4.35778 10.5176 4.67008 10.7369 4.96785 11.0336Z" fill="white" stroke="#FF7A00" stroke-width="0.2"/>
<path d="M19.9132 11.0152C20.1899 11.3068 20.3902 11.6121 20.4923 11.867C20.5435 11.9947 20.568 12.1048 20.5684 12.1914C20.5688 12.2778 20.5458 12.3308 20.513 12.3619C20.4803 12.393 20.4261 12.4132 20.3399 12.4083C20.2534 12.4033 20.1448 12.3731 20.0199 12.3153C19.7707 12.2 19.4763 11.984 19.1996 11.6924C18.9229 11.4008 18.7226 11.0955 18.6205 10.8406C18.5693 10.7129 18.5448 10.6028 18.5444 10.5162C18.5439 10.4299 18.567 10.3768 18.5998 10.3458C18.6325 10.3147 18.6867 10.2944 18.7729 10.2994C18.8593 10.3043 18.968 10.3346 19.0929 10.3924C19.3421 10.5077 19.6365 10.7236 19.9132 11.0152Z" fill="white" stroke="#FF7A00" stroke-width="0.2"/>
</g>
<defs>
<clipPath id="clip0_10306_42648">
<rect width="24" height="24" fill="white"/>
</clipPath>
</defs>
</svg>
