<svg width="24" height="24" viewBox="0 0 24 24" fill="none" xmlns="http://www.w3.org/2000/svg">
<g clip-path="url(#clip0_10328_46152)">
<path fill-rule="evenodd" clip-rule="evenodd" d="M0 10.4951C0.702852 4.88201 5.28596 0.468641 10.9924 0V3.51679C7.21351 3.95476 4.19666 6.82591 3.53963 10.4951H0ZM7.1388e-05 13.5054C0.703162 19.1183 5.28615 23.5314 10.9924 24V20.4832C7.2137 20.0452 4.19697 17.1744 3.53974 13.5054H7.1388e-05ZM20.4603 13.5054C19.8626 16.8416 17.3141 19.5179 14.0158 20.3052V23.8747C19.2466 23.0008 23.3388 18.7836 23.9999 13.5054H20.4603ZM24 10.4951C23.3391 5.2167 19.2468 0.99921 14.0158 0.125321V3.69478C17.3143 4.48213 19.8629 7.1587 20.4604 10.4951H24Z" fill="#FF0000"/>
<circle cx="11" cy="11" r="8" fill="white"/>
<circle cx="12" cy="12" r="6.5" stroke="#FF0000"/>
<circle cx="11.9987" cy="12.0002" r="4.16667" stroke="#FF0000"/>
<circle cx="12.0013" cy="11.9998" r="1.83333" stroke="#FF0000"/>
</g>
<defs>
<clipPath id="clip0_10328_46152">
<rect width="24" height="24" fill="white"/>
</clipPath>
</defs>
</svg>
