<svg width="24" height="32" viewBox="0 0 24 32" fill="none" xmlns="http://www.w3.org/2000/svg">
<g clip-path="url(#clip0_7893_7214)">
<path d="M17 3.22727L12 1V5.45455L17 3.22727Z" fill="#4DA234"/>
<path d="M12 8V5.45455M12 5.45455V1L17 3.22727L12 5.45455Z" stroke="#4DA234"/>
<ellipse cx="11.9978" cy="20.0012" rx="2.85714" ry="2.85714" fill="#002157"/>
<path fill-rule="evenodd" clip-rule="evenodd" d="M0 18.4953C0.702775 12.8821 5.28592 8.46865 10.9924 8V11.5168C7.21347 11.9548 4.19658 14.826 3.53963 18.4953H0ZM0.000117239 21.5056C0.703285 27.1184 5.28624 31.5314 10.9924 32V28.4832C7.21379 28.0453 4.19709 25.1745 3.53979 21.5056H0.000117239ZM20.4603 21.5056C19.8626 24.8417 17.3141 27.5179 14.0158 28.3052V31.8747C19.2466 31.0008 23.3387 26.7837 23.9999 21.5056H20.4603ZM24.0001 18.4953C23.3392 13.2168 19.2469 8.99922 14.0158 8.12532V11.6948C17.3144 12.4821 19.8631 15.1588 20.4604 18.4953H24.0001Z" fill="#002157"/>
</g>
<defs>
<clipPath id="clip0_7893_7214">
<rect width="24" height="32" fill="white"/>
</clipPath>
</defs>
</svg>
